<?xml version="1.0" encoding="UTF-8"?>
<svg id="Layer_1" xmlns="http://www.w3.org/2000/svg" version="1.1" xmlns:xlink="http://www.w3.org/1999/xlink" viewBox="0 0 360 240">
  <!-- Generator: Adobe Illustrator 29.8.3, SVG Export Plug-In . SVG Version: 2.1.1 Build 3)  -->
  <defs>
    <style>
      .st0, .st1 {
        fill: #fff;
      }

      .st0, .st2 {
        stroke: #231f20;
        stroke-miterlimit: 3;
        stroke-width: .75px;
      }

      .st3 {
        font-size: 16.01px;
      }

      .st3, .st4 {
        fill: #231f20;
      }

      .st3, .st5, .st6 {
        isolation: isolate;
      }

      .st3, .st6 {
        font-family: Arial-BoldMT, Arial;
        font-weight: 700;
      }

      .st1 {
        stroke: #c7e5ff;
        stroke-width: 2px;
      }

      .st6 {
        fill: #e8c570;
        font-size: 26.68px;
      }

      .st2 {
        fill: #faeed2;
      }

      .st7 {
        fill: url(#linear-gradient);
      }
    </style>
    <linearGradient id="linear-gradient" x1="-330.08" y1="631.37" x2="-329.08" y2="630.37" gradientTransform="translate(118829 151529) scale(360 -240)" gradientUnits="userSpaceOnUse">
      <stop offset="0" stop-color="#eef8ff"/>
      <stop offset="1" stop-color="#e0f2ff"/>
    </linearGradient>
  </defs>
  <rect class="st7" width="360" height="240" rx="12" ry="12"/>
  <rect class="st1" x="40" y="40" width="280" height="160" rx="10" ry="10"/>
  <g class="st5">
    <path class="st4" d="M173.12,61.04l3.89-8.75h1.74v13.26h-1.81v-9.93l.09.58-3.26,7.51h-1.29l-3.26-7.32.09-.77v9.93h-1.81v-13.26h1.74l3.89,8.75Z"/>
    <path class="st4" d="M185.49,65.68c-1.24,0-2.2-.36-2.88-1.08-.68-.72-1.02-1.73-1.02-3.04v-1.54c0-1.29.34-2.3,1.02-3.01.68-.71,1.64-1.07,2.88-1.07s2.2.36,2.88,1.07c.68.71,1.02,1.71,1.02,3.01v1.57c0,1.3-.34,2.31-1.02,3.02s-1.64,1.07-2.88,1.07ZM185.49,63.91c.65,0,1.15-.2,1.51-.61.36-.41.53-.98.53-1.71v-1.57c0-.74-.18-1.3-.53-1.71-.36-.4-.86-.6-1.51-.6s-1.15.2-1.5.6-.54.97-.54,1.71v1.57c0,.74.18,1.31.54,1.71.36.41.86.61,1.5.61Z"/>
    <path class="st4" d="M192.04,65.54v-9.47h1.86v9.47h-1.86ZM197.78,65.54v-5.74c0-.67-.17-1.19-.51-1.55-.34-.36-.83-.55-1.46-.55s-1.08.16-1.41.48-.5.78-.5,1.36l-.19-1.82c.29-.57.67-1.01,1.14-1.32s.99-.47,1.56-.47c1.03,0,1.82.34,2.38,1.01.56.67.84,1.62.84,2.85v5.75h-1.86Z"/>
    <path class="st4" d="M205.47,65.71c-1.05,0-1.85-.34-2.42-1.01-.57-.67-.85-1.62-.85-2.84v-2.09c0-1.23.28-2.18.83-2.85.56-.67,1.34-1.01,2.35-1.01.56,0,1.07.15,1.54.44.46.29.84.7,1.13,1.23l-.19,1.93c0-.4-.07-.74-.22-1.03-.15-.29-.36-.5-.63-.65-.28-.15-.61-.22-1.01-.22-.61,0-1.09.19-1.43.57-.34.38-.51.92-.51,1.61v2.06c0,.69.17,1.22.51,1.59.34.37.81.56,1.43.56.39,0,.73-.08,1.01-.23.28-.16.49-.38.63-.67.15-.29.22-.64.22-1.05l.13,2c-.17.43-.46.81-.88,1.14-.42.34-.96.51-1.63.51ZM207.85,65.54v-13.26h1.86v13.26h-1.86Z"/>
    <path class="st4" d="M215.57,65.68c-1.16,0-2.03-.24-2.61-.72-.58-.48-.87-1.22-.87-2.21s.27-1.65.8-2.11c.53-.46,1.33-.7,2.39-.7h2.69l.13,1.5h-2.81c-.48,0-.84.11-1.08.32-.24.22-.37.55-.37.99,0,.48.16.84.48,1.07s.81.35,1.45.35c.71,0,1.23-.08,1.59-.23s.53-.39.53-.71l.19,1.33c-.16.26-.37.46-.61.63-.24.16-.52.29-.83.37-.31.08-.67.12-1.06.12ZM217.88,65.54v-6c0-.62-.17-1.1-.5-1.45-.33-.34-.8-.52-1.41-.52-.37,0-.74.06-1.1.17-.36.11-.69.28-.97.49l-1.36-.93c.36-.43.83-.77,1.42-1.01.59-.24,1.24-.36,1.96-.36,1.19,0,2.1.31,2.75.92.65.61.98,1.48.98,2.6v6.08h-1.77Z"/>
    <path class="st4" d="M224.98,66.32l-3.78-10.24h1.9l2.91,8.23-1.03,2.02ZM227.69,56.08h1.9l-4.03,11.68c-.22.65-.55,1.1-.98,1.35s-1.01.38-1.75.38h-.37v-1.79h.37c.35,0,.62-.07.83-.21.2-.14.38-.38.53-.72l3.5-10.7Z"/>
  </g>
  <text class="st3" transform="translate(53.28 138.92)"><tspan x="0" y="0">PD</tspan></text>
  <rect class="st0" x="108.42" y="89.56" width="138.74" height="98.72"/>
  <rect class="st2" x="247.17" y="89.56" width="40.02" height="98.72"/>
  <g class="st5">
    <path class="st4" d="M116.38,105.56v-10.42h1.46v10.42h-1.46ZM117.14,101.52v-1.39h3.33c.48,0,.86-.17,1.15-.49.29-.33.43-.76.43-1.3s-.14-.98-.43-1.31c-.29-.33-.67-.49-1.15-.49h-3.33v-1.39h3.28c.63,0,1.18.13,1.65.4.47.26.83.64,1.09,1.11.26.48.39,1.04.39,1.68s-.13,1.2-.39,1.68c-.26.48-.62.85-1.09,1.11-.47.26-1.02.39-1.65.39h-3.28Z"/>
    <path class="st4" d="M127.78,105.67c-1.04,0-1.84-.29-2.41-.87s-.85-1.4-.85-2.46v-.84c0-1.11.27-1.97.82-2.57.55-.61,1.32-.91,2.31-.91.94,0,1.66.34,2.17,1.03.51.69.77,1.65.77,2.9v.49h-5.02v-1.18h3.63c-.04-.6-.2-1.07-.47-1.41-.27-.34-.63-.51-1.09-.51-.55,0-.98.18-1.28.54-.31.36-.46.88-.46,1.54v.95c0,.62.16,1.09.49,1.42.33.33.79.5,1.38.5.3,0,.59-.06.88-.18.29-.12.55-.29.78-.5l.96.96c-.37.35-.78.63-1.24.82-.46.19-.92.29-1.38.29Z"/>
    <path class="st4" d="M132.6,105.56v-7.44h1.46v7.44h-1.46ZM136.69,99.89c-.13-.16-.29-.28-.49-.36-.2-.08-.42-.12-.68-.12-.46,0-.82.13-1.08.38s-.38.61-.38,1.06l-.15-1.43c.22-.44.52-.78.88-1.03.37-.25.77-.37,1.21-.37.34,0,.65.05.92.15s.51.24.72.43l-.95,1.29Z"/>
    <path class="st4" d="M141.49,105.67c-.66,0-1.26-.1-1.79-.29-.54-.19-1.02-.48-1.44-.87l.87-1.07c.41.31.81.54,1.2.69.39.15.79.23,1.17.23.58,0,1.01-.09,1.3-.27.29-.18.43-.45.43-.81,0-.28-.1-.47-.29-.59s-.45-.19-.76-.23c-.31-.04-.65-.07-1.01-.09-.3-.02-.6-.06-.9-.11-.3-.05-.57-.14-.81-.27-.24-.13-.44-.33-.58-.58-.15-.26-.22-.6-.22-1.04,0-.79.24-1.38.72-1.77.48-.39,1.2-.59,2.16-.59.58,0,1.12.08,1.63.24.5.16.97.4,1.41.72l-.88,1.07c-.37-.24-.74-.42-1.1-.54-.36-.12-.71-.18-1.06-.18-.5,0-.87.08-1.12.25-.25.17-.37.42-.37.76,0,.22.09.39.26.48.17.1.4.16.68.19.28.03.58.05.91.08.31.02.62.05.94.1.32.05.61.15.88.29.27.14.48.36.64.64.16.28.24.67.24,1.15,0,.8-.26,1.39-.78,1.79-.52.4-1.3.59-2.34.59Z"/>
    <path class="st4" d="M149.32,105.67c-.97,0-1.73-.28-2.26-.85-.54-.57-.8-1.36-.8-2.39v-1.21c0-1.02.27-1.81.8-2.37.53-.56,1.29-.84,2.26-.84s1.73.28,2.26.84c.54.56.8,1.35.8,2.37v1.23c0,1.02-.27,1.81-.8,2.38s-1.29.84-2.26.84ZM149.32,104.28c.51,0,.91-.16,1.19-.48.28-.32.42-.77.42-1.35v-1.23c0-.58-.14-1.03-.42-1.34-.28-.31-.67-.47-1.19-.47s-.9.16-1.18.47c-.28.32-.42.76-.42,1.34v1.23c0,.58.14,1.03.42,1.35.28.32.68.48,1.18.48Z"/>
    <path class="st4" d="M154.47,105.56v-7.44h1.46v7.44h-1.46ZM158.98,105.56v-4.51c0-.53-.14-.93-.41-1.22-.27-.29-.65-.43-1.15-.43s-.85.13-1.11.38c-.26.25-.39.61-.39,1.07l-.15-1.43c.23-.45.53-.8.9-1.04.37-.24.78-.37,1.23-.37.81,0,1.43.26,1.87.79.44.53.66,1.27.66,2.24v4.51h-1.46Z"/>
    <path class="st4" d="M165.04,105.67c-.91,0-1.6-.19-2.05-.57-.46-.38-.68-.96-.68-1.73s.21-1.29.63-1.66,1.04-.55,1.88-.55h2.11l.1,1.17h-2.21c-.38,0-.66.08-.85.25-.19.17-.29.43-.29.78,0,.38.13.66.38.84.25.18.63.27,1.14.27.55,0,.97-.06,1.25-.18.28-.12.42-.31.42-.56l.15,1.05c-.13.2-.29.37-.48.49s-.41.23-.66.29-.52.1-.83.1ZM166.86,105.56v-4.71c0-.49-.13-.87-.39-1.14-.26-.27-.63-.41-1.11-.41-.29,0-.58.04-.86.13-.28.09-.54.22-.76.38l-1.07-.73c.28-.34.65-.6,1.11-.79.46-.19.97-.28,1.54-.28.93,0,1.65.24,2.16.72s.77,1.16.77,2.04v4.78h-1.39Z"/>
    <path class="st4" d="M171.94,95.15v8.5c0,.18.04.31.12.42s.19.15.33.15h.69v1.39h-.86c-.55,0-.98-.17-1.28-.52-.31-.34-.46-.83-.46-1.45v-8.48h1.46Z"/>
  </g>
  <g class="st5">
    <path class="st4" d="M116.38,120.24v-10.42h1.46v10.42h-1.46ZM117.37,120.24v-1.39h2.36c.77,0,1.36-.2,1.79-.6.42-.4.63-.96.63-1.69v-3.07c0-.73-.21-1.29-.63-1.69-.42-.4-1.02-.6-1.79-.6h-2.36v-1.39h2.31c1.26,0,2.24.33,2.93.98.69.65,1.04,1.57,1.04,2.75v2.95c0,.79-.16,1.46-.47,2.02s-.76.98-1.35,1.28c-.59.29-1.31.44-2.15.44h-2.31Z"/>
    <path class="st4" d="M128.92,120.35c-1.04,0-1.84-.29-2.41-.87s-.85-1.4-.85-2.46v-.84c0-1.11.27-1.97.82-2.57.55-.61,1.32-.91,2.31-.91.94,0,1.66.34,2.17,1.03.51.69.77,1.65.77,2.9v.49h-5.02v-1.18h3.63c-.04-.6-.2-1.07-.47-1.41-.27-.34-.63-.51-1.09-.51-.55,0-.98.18-1.28.54-.31.36-.46.88-.46,1.54v.95c0,.62.16,1.09.49,1.42.33.33.79.5,1.38.5.3,0,.59-.06.88-.18.29-.12.55-.29.78-.5l.96.96c-.37.35-.78.63-1.24.82-.46.19-.92.29-1.38.29Z"/>
    <path class="st4" d="M136.01,118.11l1.82-5.31h1.53l-2.79,7.44h-1.1l-2.79-7.44h1.53l1.82,5.31Z"/>
    <path class="st4" d="M143.69,120.35c-1.04,0-1.84-.29-2.41-.87s-.85-1.4-.85-2.46v-.84c0-1.11.27-1.97.82-2.57.55-.61,1.32-.91,2.31-.91.94,0,1.66.34,2.17,1.03.51.69.77,1.65.77,2.9v.49h-5.02v-1.18h3.63c-.04-.6-.2-1.07-.47-1.41-.27-.34-.63-.51-1.09-.51-.55,0-.98.18-1.28.54-.31.36-.46.88-.46,1.54v.95c0,.62.16,1.09.49,1.42.33.33.79.5,1.38.5.3,0,.59-.06.88-.18.29-.12.55-.29.78-.5l.96.96c-.37.35-.78.63-1.24.82-.46.19-.92.29-1.38.29Z"/>
    <path class="st4" d="M149.98,109.82v8.5c0,.18.04.31.12.42s.19.15.33.15h.69v1.39h-.86c-.55,0-.98-.17-1.28-.52-.31-.34-.46-.83-.46-1.45v-8.48h1.46Z"/>
    <path class="st4" d="M155.61,120.35c-.97,0-1.73-.28-2.26-.85-.54-.57-.8-1.36-.8-2.39v-1.21c0-1.02.27-1.81.8-2.37.53-.56,1.29-.84,2.26-.84s1.73.28,2.26.84c.54.56.8,1.35.8,2.37v1.23c0,1.02-.27,1.81-.8,2.38s-1.29.84-2.26.84ZM155.61,118.96c.51,0,.91-.16,1.19-.48.28-.32.42-.77.42-1.35v-1.23c0-.58-.14-1.03-.42-1.34-.28-.31-.67-.47-1.19-.47s-.9.16-1.18.47c-.28.32-.42.76-.42,1.34v1.23c0,.58.14,1.03.42,1.35.28.32.68.48,1.18.48Z"/>
    <path class="st4" d="M160.76,123.26v-10.46h1.46v10.46h-1.46ZM164.09,120.35c-.46,0-.87-.11-1.21-.33-.34-.22-.6-.54-.76-.94l.1-1.55c0,.32.06.59.17.82s.28.4.5.52c.22.12.48.18.79.18.48,0,.86-.15,1.12-.44.26-.29.4-.71.4-1.24v-1.61c0-.54-.13-.97-.4-1.27-.27-.3-.64-.45-1.12-.45-.31,0-.58.06-.79.17-.22.11-.38.28-.5.5s-.17.49-.17.8l-.15-1.43c.22-.43.52-.77.88-1.01s.77-.35,1.21-.35c.8,0,1.41.26,1.85.79.43.53.65,1.27.65,2.24v1.62c0,.95-.22,1.69-.67,2.21s-1.08.79-1.9.79Z"/>
    <path class="st4" d="M168.74,120.24v-7.44h1.46v7.44h-1.46ZM173.18,120.24v-4.51c0-.53-.13-.93-.39-1.22-.26-.29-.62-.43-1.1-.43s-.85.13-1.11.38c-.26.25-.39.61-.39,1.07l-.15-1.43c.23-.45.53-.8.9-1.04.37-.24.78-.37,1.23-.37.78,0,1.39.26,1.82.79.43.53.64,1.27.64,2.24v4.51h-1.46ZM177.63,120.24v-4.51c0-.53-.13-.93-.4-1.22-.27-.29-.65-.43-1.15-.43-.45,0-.8.14-1.05.42-.25.28-.37.67-.37,1.17l-.29-1.43c.24-.5.55-.88.93-1.15s.8-.4,1.27-.4c.81,0,1.43.26,1.87.79.44.53.66,1.27.66,2.24v4.51h-1.46Z"/>
    <path class="st4" d="M184.35,120.35c-1.04,0-1.84-.29-2.41-.87s-.85-1.4-.85-2.46v-.84c0-1.11.27-1.97.82-2.57.55-.61,1.32-.91,2.31-.91.94,0,1.66.34,2.17,1.03.51.69.77,1.65.77,2.9v.49h-5.02v-1.18h3.63c-.04-.6-.2-1.07-.47-1.41-.27-.34-.63-.51-1.09-.51-.55,0-.98.18-1.28.54-.31.36-.46.88-.46,1.54v.95c0,.62.16,1.09.49,1.42.33.33.79.5,1.38.5.3,0,.59-.06.88-.18.29-.12.55-.29.78-.5l.96.96c-.37.35-.78.63-1.24.82-.46.19-.92.29-1.38.29Z"/>
    <path class="st4" d="M189.18,120.24v-7.44h1.46v7.44h-1.46ZM193.69,120.24v-4.51c0-.53-.14-.93-.41-1.22-.27-.29-.65-.43-1.15-.43s-.85.13-1.11.38c-.26.25-.39.61-.39,1.07l-.15-1.43c.23-.45.53-.8.9-1.04.37-.24.78-.37,1.23-.37.81,0,1.43.26,1.87.79.44.53.66,1.27.66,2.24v4.51h-1.46Z"/>
    <path class="st4" d="M196.8,114.12v-1.32h3.35v1.32h-3.35ZM199.31,120.28c-.61,0-1.05-.17-1.33-.51-.27-.34-.41-.83-.41-1.46v-7.67h1.46v7.68c0,.18.04.31.11.42s.18.15.32.15h.7v1.39h-.85Z"/>
  </g>
  <g class="st5">
    <path class="st4" d="M117.85,124.5v10.42h-1.46v-10.42h1.46Z"/>
    <path class="st4" d="M120.28,134.92v-7.44h1.46v7.44h-1.46ZM124.8,134.92v-4.51c0-.53-.14-.93-.41-1.22-.27-.29-.65-.43-1.15-.43s-.85.13-1.11.38c-.26.25-.39.61-.39,1.07l-.15-1.43c.23-.45.53-.8.9-1.04.37-.24.78-.37,1.23-.37.81,0,1.43.26,1.88.79.44.53.66,1.27.66,2.24v4.51h-1.46Z"/>
    <path class="st4" d="M127.91,128.8v-1.32h3.35v1.32h-3.35ZM130.41,134.95c-.61,0-1.05-.17-1.33-.51-.27-.34-.41-.83-.41-1.46v-7.67h1.46v7.68c0,.18.04.31.11.42s.18.15.32.15h.7v1.39h-.85Z"/>
    <path class="st4" d="M136.31,135.02c-1.04,0-1.84-.29-2.41-.87s-.85-1.4-.85-2.46v-.84c0-1.11.27-1.97.82-2.57.55-.61,1.32-.91,2.31-.91.94,0,1.66.34,2.17,1.03.51.69.77,1.65.77,2.9v.49h-5.02v-1.18h3.63c-.04-.6-.2-1.07-.47-1.41-.27-.34-.63-.51-1.09-.51-.55,0-.98.18-1.28.54-.31.36-.46.88-.46,1.54v.95c0,.62.16,1.09.49,1.42.33.33.79.5,1.38.5.3,0,.59-.06.88-.18.29-.12.55-.29.78-.5l.96.96c-.37.35-.78.63-1.24.82-.46.19-.92.29-1.38.29Z"/>
    <path class="st4" d="M141.13,134.92v-7.44h1.46v7.44h-1.46ZM145.22,129.24c-.13-.16-.29-.28-.49-.36-.2-.08-.42-.12-.68-.12-.46,0-.82.13-1.08.38s-.38.61-.38,1.06l-.15-1.43c.22-.44.52-.78.88-1.03.37-.25.77-.37,1.21-.37.34,0,.65.05.92.15s.51.24.72.43l-.95,1.29Z"/>
    <path class="st4" d="M149.95,132.79l1.82-5.31h1.53l-2.79,7.44h-1.1l-2.79-7.44h1.53l1.82,5.31Z"/>
    <path class="st4" d="M157.63,135.02c-1.04,0-1.84-.29-2.41-.87s-.85-1.4-.85-2.46v-.84c0-1.11.27-1.97.82-2.57.55-.61,1.32-.91,2.31-.91.94,0,1.66.34,2.17,1.03.51.69.77,1.65.77,2.9v.49h-5.02v-1.18h3.63c-.04-.6-.2-1.07-.47-1.41-.27-.34-.63-.51-1.09-.51-.55,0-.98.18-1.28.54-.31.36-.46.88-.46,1.54v.95c0,.62.16,1.09.49,1.42.33.33.79.5,1.38.5.3,0,.59-.06.88-.18.29-.12.55-.29.78-.5l.96.96c-.37.35-.78.63-1.24.82-.46.19-.92.29-1.38.29Z"/>
    <path class="st4" d="M162.46,134.92v-7.44h1.46v7.44h-1.46ZM166.97,134.92v-4.51c0-.53-.14-.93-.41-1.22-.27-.29-.65-.43-1.15-.43s-.85.13-1.11.38c-.26.25-.39.61-.39,1.07l-.15-1.43c.23-.45.53-.8.9-1.04.37-.24.78-.37,1.23-.37.81,0,1.43.26,1.87.79.44.53.66,1.27.66,2.24v4.51h-1.46Z"/>
    <path class="st4" d="M170.08,128.8v-1.32h3.35v1.32h-3.35ZM172.59,134.95c-.61,0-1.05-.17-1.33-.51-.27-.34-.41-.83-.41-1.46v-7.67h1.46v7.68c0,.18.04.31.11.42s.18.15.32.15h.7v1.39h-.85Z"/>
    <path class="st4" d="M175.44,125.96v-1.46h1.46v1.46h-1.46ZM175.44,134.92v-7.44h1.46v7.44h-1.46Z"/>
    <path class="st4" d="M181.98,135.02c-.97,0-1.73-.28-2.26-.85-.54-.57-.8-1.36-.8-2.39v-1.21c0-1.02.27-1.81.8-2.37.53-.56,1.29-.84,2.26-.84s1.73.28,2.26.84c.54.56.8,1.35.8,2.37v1.23c0,1.02-.27,1.81-.8,2.38s-1.29.84-2.26.84ZM181.98,133.63c.51,0,.91-.16,1.19-.48.28-.32.42-.77.42-1.35v-1.23c0-.58-.14-1.03-.42-1.34-.28-.31-.67-.47-1.19-.47s-.9.16-1.18.47c-.28.32-.42.76-.42,1.34v1.23c0,.58.14,1.03.42,1.35.28.32.68.48,1.18.48Z"/>
    <path class="st4" d="M187.12,134.92v-7.44h1.46v7.44h-1.46ZM191.64,134.92v-4.51c0-.53-.14-.93-.41-1.22-.27-.29-.65-.43-1.15-.43s-.85.13-1.11.38c-.26.25-.39.61-.39,1.07l-.15-1.43c.23-.45.53-.8.9-1.04.37-.24.78-.37,1.23-.37.81,0,1.43.26,1.87.79.44.53.66,1.27.66,2.24v4.51h-1.46Z"/>
  </g>
  <g class="st5">
    <path class="st4" d="M120.81,155.39l3.06-6.88h1.37v10.42h-1.43v-7.8l.07.46-2.57,5.9h-1.02l-2.56-5.75.07-.6v7.8h-1.43v-10.42h1.37l3.06,6.88Z"/>
    <path class="st4" d="M126.67,158.93l3.84-10.42h1.25l3.84,10.42h-1.58l-2.89-8.41-2.89,8.41h-1.58ZM128.44,156.64v-1.39h5.48v1.39h-5.48Z"/>
    <path class="st4" d="M139.48,148.51v10.42h-1.46v-8.83l-1.48.91v-1.51l1.48-.99h1.46Z"/>
    <path class="st4" d="M141.68,158.93v-1.27l3.63-4.84c.21-.28.37-.56.49-.86.12-.3.18-.58.18-.84h0c0-.43-.12-.75-.37-.98-.24-.23-.59-.34-1.04-.34-.42,0-.76.12-1.03.38-.27.25-.43.61-.48,1.06h0s-1.51,0-1.51,0h0c.13-.91.46-1.6.98-2.1.53-.5,1.2-.74,2.03-.74.94,0,1.66.24,2.17.71.51.47.77,1.14.77,2.01h0c0,.38-.08.76-.23,1.17-.15.4-.37.79-.64,1.16l-3.02,4.1h3.94v1.39h-5.88Z"/>
  </g>
  <g class="st5">
    <path class="st4" d="M120.81,174.07l3.06-6.88h1.37v10.42h-1.43v-7.8l.07.46-2.57,5.9h-1.02l-2.56-5.75.07-.6v7.8h-1.43v-10.42h1.37l3.06,6.88Z"/>
    <path class="st4" d="M127.68,177.61v-7.44h1.46v7.44h-1.46ZM131.77,171.93c-.13-.16-.29-.28-.49-.36-.2-.08-.42-.12-.68-.12-.46,0-.82.13-1.08.38s-.38.61-.38,1.06l-.15-1.43c.22-.44.52-.78.88-1.03.37-.25.77-.37,1.21-.37.34,0,.65.05.92.15s.51.24.72.43l-.95,1.29Z"/>
    <path class="st4" d="M136.57,177.71c-.66,0-1.26-.1-1.79-.29-.54-.19-1.02-.48-1.44-.87l.87-1.07c.41.31.81.54,1.2.69.39.15.79.23,1.17.23.58,0,1.01-.09,1.3-.27.29-.18.43-.45.43-.81,0-.28-.1-.47-.29-.59s-.45-.19-.76-.23c-.31-.04-.65-.07-1.01-.09-.3-.02-.6-.06-.9-.11-.3-.05-.57-.14-.81-.27-.24-.13-.44-.33-.58-.58-.15-.26-.22-.6-.22-1.04,0-.79.24-1.38.72-1.77.48-.39,1.2-.59,2.16-.59.58,0,1.12.08,1.63.24.5.16.97.4,1.41.72l-.88,1.07c-.37-.24-.74-.42-1.1-.54-.36-.12-.71-.18-1.06-.18-.5,0-.87.08-1.12.25-.25.17-.37.42-.37.76,0,.22.09.39.26.48.17.1.4.16.68.19.28.03.58.05.91.08.31.02.62.05.94.1.32.05.61.15.88.29.27.14.48.36.64.64.16.28.24.67.24,1.15,0,.8-.26,1.39-.78,1.79-.52.4-1.3.59-2.34.59Z"/>
    <path class="st4" d="M144.63,177.61l3.84-10.42h1.25l3.84,10.42h-1.58l-2.89-8.41-2.89,8.41h-1.58ZM146.4,175.32v-1.39h5.48v1.39h-5.48Z"/>
    <path class="st4" d="M159.08,177.61v-10.42h1.45v10.42h-1.45ZM159.93,177.61v-1.35h2.82c.77,0,1.32-.15,1.64-.44.32-.3.48-.69.48-1.17v-.02c0-.52-.14-.93-.41-1.24-.27-.31-.73-.46-1.36-.46h-3.18v-1.32h3.18c.54,0,.95-.13,1.22-.38.27-.26.41-.63.41-1.12,0-.52-.15-.91-.46-1.17-.31-.26-.76-.39-1.38-.39h-2.98v-1.35h3.25c1.03,0,1.79.26,2.29.77.5.51.75,1.2.75,2.06,0,.52-.15,1-.46,1.43-.31.43-.79.71-1.44.83.64.1,1.15.38,1.5.85.36.47.53,1.01.53,1.63v.02c0,.85-.27,1.54-.82,2.06s-1.29.78-2.24.78h-3.37Z"/>
    <path class="st4" d="M171.45,177.71c-1.04,0-1.84-.29-2.41-.87s-.85-1.4-.85-2.46v-.84c0-1.11.27-1.97.82-2.57.55-.61,1.32-.91,2.31-.91.94,0,1.66.34,2.17,1.03.51.69.77,1.65.77,2.9v.49h-5.02v-1.18h3.63c-.04-.6-.2-1.07-.47-1.41-.27-.34-.63-.51-1.09-.51-.55,0-.98.18-1.28.54-.31.36-.46.88-.46,1.54v.95c0,.62.16,1.09.49,1.42.33.33.79.5,1.38.5.3,0,.59-.06.88-.18.29-.12.55-.29.78-.5l.96.96c-.37.35-.78.63-1.24.82-.46.19-.92.29-1.38.29Z"/>
    <path class="st4" d="M175.7,171.49v-1.32h3.35v1.32h-3.35ZM178.21,177.64c-.61,0-1.05-.17-1.33-.51-.27-.34-.41-.83-.41-1.46v-7.67h1.46v7.68c0,.18.04.31.11.42s.18.15.32.15h.7v1.39h-.85Z"/>
    <path class="st4" d="M183.44,177.71c-.91,0-1.6-.19-2.05-.57-.46-.38-.68-.96-.68-1.73s.21-1.29.63-1.66,1.04-.55,1.88-.55h2.11l.1,1.17h-2.21c-.38,0-.66.08-.85.25-.19.17-.29.43-.29.78,0,.38.13.66.38.84.25.18.63.27,1.14.27.55,0,.97-.06,1.25-.18.28-.12.42-.31.42-.56l.15,1.05c-.13.2-.29.37-.48.49s-.41.23-.66.29-.52.1-.83.1ZM185.26,177.61v-4.71c0-.49-.13-.87-.39-1.14-.26-.27-.63-.41-1.11-.41-.29,0-.58.04-.86.13-.28.09-.54.22-.76.38l-1.07-.73c.28-.34.65-.6,1.11-.79.46-.19.97-.28,1.54-.28.93,0,1.65.24,2.16.72s.77,1.16.77,2.04v4.78h-1.39Z"/>
  </g>
  <text class="st6" transform="translate(255.99 101.67) rotate(90)"><tspan x="0" y="0">MA12</tspan></text>
</svg>
